# xmcd
#
# Track frame offsets:
# 150
# 14405
# 25742
# 36635
# 46830
# 58017
# 68502
# 79360
# 90140
# 100740
# 110857
# 121690
# 130907
# 142082
# 152752
# 166227
# 173515
# 182360
# 195092
# 206860
# 219362
# 231815
# 242730
# 256817
#
# Disc length: 3545 seconds
#
#
# Revision: 1
# Processed by: cddbd v1.5.1PL2 Copyright (c) Steve Scherf et al.
# Submitted via: FreeRIP 2.944 
#
DISCID=3a0dd718
DTITLE=Nat King Cole - Dear Lonely Hearts and I Don't Want To Hurt Anymore
DYEAR=1900
DGENRE=Easy Listening
TTITLE0=Dear Lonely Hearts
TTITLE1=Miss You
TTITLE2=Why Should I Cry Over You
TTITLE3=Near You
TTITLE4=Yearning (Just For You)
TTITLE5=My First And Only Lover
TTITLE6=All Over The Wprld
TTITLE7=Oh, How I Miss You Tonight
TTITLE8=Lonesome And Sorry
TTITLE9=All By Myself
TTITLE10=Who's Next In Line
TTITLE11=It's A Lonesome Old Town
TTITLE12=I Don't Want To Be Hurt Anymore
TTITLE13=You're Crying On My Shoulder
TTITLE14=Only Yesterday
TTITLE15=I'm Alone Because I Love You
TTITLE16=Don't You Remember
TTITLE17=You're My Everything
TTITLE18=I Don't Want To See Tomorrow
TTITLE19=Brush Those Tears From Your Eyes
TTITLE20=Was That The Human Thing To Do
TTITLE21=Go, If You're Going
TTITLE22=Road To Nowhere
TTITLE23=I'm All Cried Out
EXTD=Ripped with dBpowerAMP Encoded with L.A.M.E.
EXTT0=
EXTT1=
EXTT2=
EXTT3=
EXTT4=
EXTT5=
EXTT6=
EXTT7=
EXTT8=
EXTT9=
EXTT10=
EXTT11=
EXTT12=
EXTT13=
EXTT14=
EXTT15=
EXTT16=
EXTT17=
EXTT18=
EXTT19=
EXTT20=
EXTT21=
EXTT22=
EXTT23=
PLAYORDER=
